<?xml version="1.0" encoding="utf-8"?>
<!-- Generator: Adobe Illustrator 19.2.1, SVG Export Plug-In . SVG Version: 6.00 Build 0)  -->
<svg version="1.1" id="Layer_1" xmlns="http://www.w3.org/2000/svg" xmlns:xlink="http://www.w3.org/1999/xlink" x="0px" y="0px"
	 viewBox="0 0 281.7 91.4" style="enable-background:new 0 0 281.7 91.4;" xml:space="preserve">
<style type="text/css">
	.st0{fill:#FFFFFF;}
</style>
<title>EF_WHT_svg</title>
<g id="Layer_1_1_">
	<path class="st0" d="M266.1,84.2l-8.7-11h-2.7v17.7h3.3V79l9.3,11.9h2.1V73.2h-3.3V84.2z M233.7,75.9c4.2,0,5.8,3.3,5.8,6.3
		s-1.6,6-5.8,6s-5.7-3.1-5.8-6S229.5,75.9,233.7,75.9z M233.7,72.9c-6.1,0-9.1,4.7-9.1,9.3c0,4.7,2.9,9.1,9.1,9.1s9-4.6,9.1-9.2
		S239.8,72.9,233.7,72.9z M212.4,90.9V73.2h-3.3v17.7H212.4z M188.9,90.9h3.3V76.3h5.6v-3h-14.6v3h5.6V90.9z M170,84.5h-6.6l3.3-7.6
		L170,84.5z M172.8,90.9h3.6l-7.9-17.7h-3.6l-7.9,17.7h3.6l1.5-3.3h9.3L172.8,90.9z M134.8,76.3h3.6c3.8,0,5.5,2.8,5.5,5.5
		c0.1,2.8-1.5,5.8-5.5,5.8h-3.6V76.3z M138.4,73.2h-7v17.7h7c6.2,0,8.9-4.5,8.9-9S144.5,73.2,138.4,73.2L138.4,73.2z M116.1,84.2
		l-8.7-11h-2.7v17.7h3.3V79l9.3,11.9h2.1V73.2h-3.3L116.1,84.2z M88.6,73.2v10.1c0,3-1.6,4.9-4.3,4.9s-4.6-1.7-4.6-4.9V73.3h-3.3
		v10.1c0,5.3,3.6,7.9,7.9,7.9c4.4,0,7.7-2.7,7.7-7.9V73.3L88.6,73.2z M55.6,75.9c4.2,0,5.8,3.3,5.8,6.3c0,3-1.6,6-5.8,6
		s-5.7-3.1-5.8-6S51.5,75.9,55.6,75.9L55.6,75.9z M55.6,72.9c-6.1,0-9.1,4.7-9.1,9.3s2.9,9.1,9.1,9.1s9-4.6,9.1-9.2
		S61.7,72.9,55.6,72.9L55.6,72.9z M25.9,90.9v-6.6h8.9v-3.1h-8.9v-4.8h9.4v-3.2H22.5v17.7H25.9z"/>
	<path class="st0" d="M269.8,54.7h-22.2v-8.9H269v-6.9h-21.4v-9.1h22.2v-7.2h-29.6V62h29.6V54.7z M229.8,29c-3-6.1-9.4-7.8-15.5-7.8
		C207,21.2,199,24.5,199,32.7c0,8.9,7.4,11,15.5,12c5.2,0.6,9.1,2.1,9.1,5.8c0,4.3-4.4,5.9-9.1,5.9s-9.4-1.9-11.1-6.3l-6.2,3.2
		c2.9,7.2,9.1,9.7,17.2,9.7c8.8,0,16.6-3.8,16.6-12.6c0-9.4-7.7-11.6-15.9-12.6c-4.7-0.6-8.8-1.5-8.8-5c0-2.9,2.6-5.2,8.2-5.2
		c4.3,0,8,2.1,9.4,4.4L229.8,29z M176.4,22.5c-6.2,0-12.4,0-18.6,0V62h7.4V50.4h11.2C195.8,50.4,195.7,22.5,176.4,22.5z M165.3,29.6
		h11.2c9.5,0,9.5,14,0,14h-11.2L165.3,29.6z M147.3,62V22.5h-7.4V62L147.3,62z M103.3,22.5V62H131v-6.9h-20.2V22.5L103.3,22.5z
		 M91.1,51.9c-2.7,2.5-6.2,4-9.9,4c-9.8,0-13.5-6.8-13.6-13.4s4.1-13.7,13.6-13.7c3.5-0.1,7,1.3,9.5,3.7l5-4.8
		c-3.8-3.9-9.1-6-14.5-6c-14.3,0-21,10.5-20.9,20.8s6.2,20.3,20.9,20.3c5.6,0.1,11-2,15-5.9L91.1,51.9z M52.1,54.7H29.9v-8.9h21.4
		v-6.9H29.9v-9.1h22.2v-7.2H22.5V62h29.5L52.1,54.7z"/>
	<path class="st0" d="M10.2,18.4c9-14.1,27.1-19,42.3-12.3c-0.3-0.2-0.7-0.5-1-0.7C36.2-4.6,15.6-0.4,5.5,14.9s-5.9,35.8,9.4,45.9
		c0.3,0.2,0.5,0.3,0.8,0.5c0.3,0.2,0.7,0.4,1.1,0.6C4.2,51.1,1.1,32.5,10.2,18.4z"/>
	<path class="st0" d="M275.5,23.4h-1.6V28h-1v-4.6h-1.6v-1h4.2L275.5,23.4z"/>
	<path class="st0" d="M281.7,28h-1l-0.5-3.8l-1.5,2.7l-1.4-2.5l-0.5,3.7h-1.1l0.8-5.6h0.9l1.4,2.5l1.4-2.6h0.8L281.7,28z"/>
</g>
</svg>
