<svg enable-background="new 0 0 376 102.8" viewBox="0 0 376 102.8" xmlns="http://www.w3.org/2000/svg"><path d="m79.6 20.811h-20.989v27.84h27.84v-20.989c0-3.784-3.067-6.851-6.851-6.851z" fill="#2f7de1"/><g fill="#0b2a35"><path d="m79.6 56.02h-14.138c-3.784 0-6.851 3.067-6.851 6.851v20.989h27.84v-20.989c0-3.784-3.067-6.851-6.851-6.851z"/><path d="m50.464 83.86h-16.893c-3.844 0-6.96-3.116-6.96-6.96v-49.129c0-3.844 3.116-6.96 6.96-6.96h16.893z"/><path d="m299.721 75.319h-3.89l-1.741-2.83c-3.015 1.879-6.323 2.83-9.837 2.83-7.642 0-11.517-3.304-11.517-9.82 0-6.631 4.376-9.994 13.009-9.994 2.476 0 4.988.17 7.476.503v-2.272c0-3.2-2.531-4.754-7.739-4.754-3.089 0-6.306.484-9.561 1.442l-.696.204v-5.523l.391-.115c3.353-.985 6.674-1.484 9.867-1.484 9.449 0 14.239 3.393 14.239 10.084v21.729zm-13.976-14.339c-4.378 0-6.508 1.45-6.508 4.431 0 3.024 1.595 4.431 5.015 4.431 3.501 0 6.519-.913 8.969-2.714v-5.635c-2.484-.341-4.996-.513-7.476-.513z"/><path d="m134.292 75.319h-6.5v-19.917c0-3.368-2.661-6.194-5.929-6.298l-.349-.006c-2.88 0-5.668 1.206-8.29 3.586v22.634h-6.5v-43.792h3.347c1.739 0 3.153 1.414 3.153 3.153v11.589c2.533-1.835 5.563-2.762 9.025-2.762 7.992 0 12.044 4.032 12.044 11.986v19.827z"/><path d="m165.706 75.319h-3.89l-1.741-2.83c-3.015 1.879-6.321 2.83-9.836 2.83-7.642 0-11.517-3.304-11.517-9.82 0-6.631 4.377-9.994 13.009-9.994 2.475 0 4.987.17 7.475.503v-2.272c0-3.2-2.531-4.754-7.738-4.754-3.092 0-6.308.484-9.562 1.442l-.696.204v-5.523l.391-.115c3.353-.985 6.674-1.484 9.868-1.484 9.448 0 14.238 3.393 14.238 10.084v21.729zm-13.974-14.339c-4.379 0-6.508 1.45-6.508 4.431 0 3.024 1.594 4.431 5.015 4.431 3.502 0 6.517-.913 8.968-2.714v-5.635c-2.485-.341-4.997-.513-7.475-.513z"/><path d="m195.46 75.319h-25.083v-4.837l.127-.151 17.838-21.35h-17.379v-5.476h25.083v5.128l-.125.151-17.613 21.352h17.152z"/><path d="m215.134 75.319c-10.865 0-16.375-5.47-16.375-16.258 0-10.321 4.939-15.555 14.678-15.555 9.06 0 13.653 4.544 13.653 13.506 0 1.251-.089 2.603-.268 4.019l-.059.476h-21.492c.204 5.608 3.627 8.336 10.449 8.336 3.425 0 6.504-.386 9.154-1.151l.694-.2v5.523l-.393.113c-2.749.79-6.127 1.191-10.041 1.191zm-9.824-19.405h15.464c-.272-4.701-2.675-6.99-7.336-6.99-4.973 0-7.635 2.289-8.128 6.99z"/><path d="m238.977 75.319h-6.502v-43.793h3.348c1.739 0 3.153 1.414 3.153 3.153v40.64z"/><path d="m260.601 75.319c-11.234 0-16.931-5.548-16.931-16.492 0-10.166 5.697-15.322 16.931-15.322 2.949 0 5.748.299 8.315.892l.423.096v5.508l-.667-.155c-2.484-.573-5.3-.864-8.364-.864-6.82 0-10.137 3.221-10.137 9.846 0 7.412 3.317 11.016 10.137 11.016 3.064 0 5.879-.291 8.364-.864l.667-.155v5.508l-.423.096c-2.567.591-5.366.89-8.315.89z"/><path d="m317.386 75.319c-3.716 0-7.446-.499-11.088-1.482l-.401-.108v-5.845l.711.229c3.542 1.149 7.166 1.73 10.778 1.73 6.801 0 6.801-2.896 6.801-3.847 0-1.525-.476-3.552-4.578-3.552h-4.389c-6.962 0-10.493-3.234-10.493-9.614 0-6.187 4.487-9.323 13.332-9.323 3.697 0 7.417.499 11.058 1.482l.401.108v5.845l-.711-.229c-3.54-1.149-7.158-1.73-10.748-1.73-7.124 0-7.124 2.896-7.124 3.847 0 2.423 1.361 3.552 4.285 3.552h4.389c7.351 0 11.079 3.234 11.079 9.614.001 6.187-4.475 9.323-13.302 9.323z"/><path d="m349.529 75.319h-5.693c-5.489 0-8.27-2.968-8.27-8.824v-27.964h4.37l1.17 4.975h8.423v5.476h-7.461v17.103c0 2.565 1.009 3.758 3.172 3.758h4.289z"/></g></svg>