<?xml version="1.0" encoding="utf-8"?>
<!-- Generator: Adobe Illustrator 17.1.0, SVG Export Plug-In . SVG Version: 6.00 Build 0)  -->
<!DOCTYPE svg PUBLIC "-//W3C//DTD SVG 1.1//EN" "http://www.w3.org/Graphics/SVG/1.1/DTD/svg11.dtd">
<svg version="1.1" id="Layer_1" xmlns="http://www.w3.org/2000/svg" xmlns:xlink="http://www.w3.org/1999/xlink" x="0px" y="0px"
	 viewBox="0 0 376 102.8" enable-background="new 0 0 376 102.8" xml:space="preserve">
<g>
	<path fill="#2F7DE1" d="M79.6,20.811H58.611v27.84h27.84V27.662C86.451,23.878,83.384,20.811,79.6,20.811z"/>
	<path fill="#0B2A35" d="M79.6,56.02H65.462c-3.784,0-6.851,3.067-6.851,6.851V83.86h27.84V62.871
		C86.451,59.087,83.384,56.02,79.6,56.02z"/>
	<g>
		<path fill="#0B2A35" d="M50.464,83.86H33.571c-3.844,0-6.96-3.116-6.96-6.96V27.771c0-3.844,3.116-6.96,6.96-6.96h16.893V83.86z"
			/>
	</g>
	<g>
		<g>
			<g>
				<g>
					<path fill="#0B2A35" d="M299.721,75.319h-3.89l-1.741-2.83c-3.015,1.879-6.323,2.83-9.837,2.83
						c-7.642,0-11.517-3.304-11.517-9.82c0-6.631,4.376-9.994,13.009-9.994c2.476,0,4.988,0.17,7.476,0.503v-2.272
						c0-3.2-2.531-4.754-7.739-4.754c-3.089,0-6.306,0.484-9.561,1.442l-0.696,0.204v-5.523l0.391-0.115
						c3.353-0.985,6.674-1.484,9.867-1.484c9.449,0,14.239,3.393,14.239,10.084V75.319z M285.745,60.98
						c-4.378,0-6.508,1.45-6.508,4.431c0,3.024,1.595,4.431,5.015,4.431c3.501,0,6.519-0.913,8.969-2.714v-5.635
						C290.737,61.152,288.225,60.98,285.745,60.98z"/>
				</g>
			</g>
		</g>
		<g>
			<g>
				<g>
					<path fill="#0B2A35" d="M134.292,75.319h-6.5V55.402c0-3.368-2.661-6.194-5.929-6.298l-0.349-0.006
						c-2.88,0-5.668,1.206-8.29,3.586v22.634h-6.5V31.526h3.347c1.739,0,3.153,1.414,3.153,3.153v11.589
						c2.533-1.835,5.563-2.762,9.025-2.762c7.992,0,12.044,4.032,12.044,11.986V75.319z"/>
				</g>
			</g>
		</g>
		<g>
			<g>
				<g>
					<path fill="#0B2A35" d="M165.706,75.319h-3.89l-1.741-2.83c-3.015,1.879-6.321,2.83-9.836,2.83
						c-7.642,0-11.517-3.304-11.517-9.82c0-6.631,4.377-9.994,13.009-9.994c2.475,0,4.987,0.17,7.475,0.503v-2.272
						c0-3.2-2.531-4.754-7.738-4.754c-3.092,0-6.308,0.484-9.562,1.442l-0.696,0.204v-5.523l0.391-0.115
						c3.353-0.985,6.674-1.484,9.868-1.484c9.448,0,14.238,3.393,14.238,10.084V75.319z M151.732,60.98
						c-4.379,0-6.508,1.45-6.508,4.431c0,3.024,1.594,4.431,5.015,4.431c3.502,0,6.517-0.913,8.968-2.714v-5.635
						C156.722,61.152,154.21,60.98,151.732,60.98z"/>
				</g>
			</g>
		</g>
		<g>
			<g>
				<g>
					<path fill="#0B2A35" d="M195.46,75.319h-25.083v-4.837l0.127-0.151l17.838-21.35h-17.379v-5.476h25.083v5.128l-0.125,0.151
						l-17.613,21.352h17.152V75.319z"/>
				</g>
			</g>
		</g>
		<g>
			<g>
				<g>
					<path fill="#0B2A35" d="M215.134,75.319c-10.865,0-16.375-5.47-16.375-16.258c0-10.321,4.939-15.555,14.678-15.555
						c9.06,0,13.653,4.544,13.653,13.506c0,1.251-0.089,2.603-0.268,4.019l-0.059,0.476h-21.492
						c0.204,5.608,3.627,8.336,10.449,8.336c3.425,0,6.504-0.386,9.154-1.151l0.694-0.2v5.523l-0.393,0.113
						C222.426,74.918,219.048,75.319,215.134,75.319z M205.31,55.914h15.464c-0.272-4.701-2.675-6.99-7.336-6.99
						C208.465,48.924,205.803,51.213,205.31,55.914z"/>
				</g>
			</g>
		</g>
		<g>
			<g>
				<g>
					<path fill="#0B2A35" d="M238.977,75.319h-6.502V31.526h3.348c1.739,0,3.153,1.414,3.153,3.153V75.319z"/>
				</g>
			</g>
		</g>
		<g>
			<g>
				<g>
					<path fill="#0B2A35" d="M260.601,75.319c-11.234,0-16.931-5.548-16.931-16.492c0-10.166,5.697-15.322,16.931-15.322
						c2.949,0,5.748,0.299,8.315,0.892l0.423,0.096v5.508l-0.667-0.155c-2.484-0.573-5.3-0.864-8.364-0.864
						c-6.82,0-10.137,3.221-10.137,9.846c0,7.412,3.317,11.016,10.137,11.016c3.064,0,5.879-0.291,8.364-0.864l0.667-0.155v5.508
						l-0.423,0.096C266.349,75.02,263.55,75.319,260.601,75.319z"/>
				</g>
			</g>
		</g>
		<g>
			<g>
				<g>
					<path fill="#0B2A35" d="M317.386,75.319c-3.716,0-7.446-0.499-11.088-1.482l-0.401-0.108v-5.845l0.711,0.229
						c3.542,1.149,7.166,1.73,10.778,1.73c6.801,0,6.801-2.896,6.801-3.847c0-1.525-0.476-3.552-4.578-3.552h-4.389
						c-6.962,0-10.493-3.234-10.493-9.614c0-6.187,4.487-9.323,13.332-9.323c3.697,0,7.417,0.499,11.058,1.482l0.401,0.108v5.845
						l-0.711-0.229c-3.54-1.149-7.158-1.73-10.748-1.73c-7.124,0-7.124,2.896-7.124,3.847c0,2.423,1.361,3.552,4.285,3.552h4.389
						c7.351,0,11.079,3.234,11.079,9.614C330.689,72.183,326.213,75.319,317.386,75.319z"/>
				</g>
			</g>
		</g>
		<g>
			<g>
				<g>
					<path fill="#0B2A35" d="M349.529,75.319h-5.693c-5.489,0-8.27-2.968-8.27-8.824V38.531h4.37l1.17,4.975h8.423v5.476h-7.461
						v17.103c0,2.565,1.009,3.758,3.172,3.758h4.289V75.319z"/>
				</g>
			</g>
		</g>
	</g>
</g>
</svg>
