<svg xmlns="http://www.w3.org/2000/svg" viewBox="0 0 180.6 24.6"> <path fill="#372950" d="M5.9 6.9c0-1.7 2-2.3 3.4-2.3 1.2 0 2.8.5 3.6 1.5l3.4-3.7c-1.9-1.7-4.4-2.4-6.9-2.4-4.5 0-8.7 2.5-8.7 7.4 0 7.6 10.6 5.3 10.6 9.5 0 1.6-1.8 2.4-3.5 2.4s-3.3-.8-4.4-2.1l-3.4 3.8c2.1 2 4.7 2.8 7.6 2.8 4.7 0 8.7-2.4 8.7-7.5 0-7.9-10.4-5.2-10.4-9.4m26.4 5c0-4.2 2.8-7.3 6.6-7.3 1.9 0 3.3.7 4.3 1.9l3.8-3.2c-1.9-2.4-5.1-3.3-7.6-3.3-7.1 0-12.2 4.6-12.2 11.9s5.1 11.9 12.2 11.9c3.1 0 6.3-1.2 8.2-3.9l-4.2-3.1c-1 1.5-2.7 2.4-4.7 2.4-3.6 0-6.4-3.1-6.4-7.3m36.9 1.7l8.5-13h-5.9l-5.1 8.5-4.8-8.5h-6.2l8.5 13v9.7h5v-9.7zm18.6 9.6h14.2v-4.6h-9.2v-18h-5v22.6zm25.5 0h14.2v-4.6h-9.2v-18h-5v22.6zm46.8 0l-9.9-22.7h-4.1l-9.8 22.7h5.5l1.9-4.8 1.6-4.2 2.8-7 2.8 7 1.7 4.2 2 4.8h5.5z"></path> <path fill="#B194C5" d="M177.9 24.3c2.2-.8 3.3-3.2 2.5-5.4s-3.2-3.3-5.4-2.5c-2.2.8-3.3 3.2-2.5 5.4.7 2.2 3.2 3.3 5.4 2.5"></path> </svg>