<?xml version="1.0" encoding="UTF-8"?>
<!DOCTYPE svg PUBLIC "-//W3C//DTD SVG 1.1//EN" "http://www.w3.org/Graphics/SVG/1.1/DTD/svg11.dtd">
<svg version="1.1" xmlns="http://www.w3.org/2000/svg" xmlns:xlink="http://www.w3.org/1999/xlink" x="0" y="0" width="595.276" height="841.89" viewBox="0, 0, 595.276, 841.89">
  <defs>
    <linearGradient id="Gradient_1" gradientUnits="userSpaceOnUse" x1="356.052" y1="512.433" x2="385.004" y2="442.208" gradientTransform="matrix(0.896, 0, 0, 0.886, -88.636, -40.244)">
      <stop offset="0" stop-color="#800000"/>
      <stop offset="1" stop-color="#800000" stop-opacity="0"/>
    </linearGradient>
    <linearGradient id="Gradient_2" gradientUnits="userSpaceOnUse" x1="404.1" y1="397.239" x2="366.524" y2="503.192" gradientTransform="matrix(0.8, 0, 0, 0.729, -54.615, 31.925)">
      <stop offset="0" stop-color="#FFAAAA"/>
      <stop offset="1" stop-color="#FFAAAA" stop-opacity="0"/>
    </linearGradient>
  </defs>
  <g id="Layer_1">
    <g id="path4514">
      <path d="M333.304,183.496 C333.304,183.496 340.024,210.176 354.146,226.143 C368.267,242.11 363.679,237.865 392.152,260.109 C448.138,303.846 462.719,302.868 490.327,373.194 C493.167,380.429 506.216,387.195 492.999,453.308 C479.783,519.421 464.869,533.208 449.235,561.808 C433.601,590.409 443.271,625.711 443.271,625.711 C443.271,625.711 443.563,627.154 441.753,627.457 C439.927,627.762 439.538,626.157 439.538,626.157 C439.538,626.157 428.779,589.61 443.951,554.673 C469.835,495.068 465.31,475.81 467.263,445.983 C488.516,446.203 488.275,412.858 479.702,383.109 C471.128,353.36 460.955,324.149 448.88,338.756 L426.403,306.954 C417.576,294.465 392.87,278.65 366.988,250.693 C366.988,250.693 353.128,238.559 341.813,216.563 C330.499,194.567 330.848,184.062 330.848,184.062 C330.848,184.062 330.688,182.91 331.887,182.704 C333.027,182.509 333.304,183.496 333.304,183.496 z" fill="#784421"/>
      <path d="M333.304,183.496 C333.304,183.496 340.024,210.176 354.146,226.143 C368.267,242.11 363.679,237.865 392.152,260.109 C448.138,303.846 462.719,302.868 490.327,373.194 C493.167,380.429 506.216,387.195 492.999,453.308 C479.783,519.421 464.869,533.208 449.235,561.808 C433.601,590.409 443.271,625.711 443.271,625.711 C443.271,625.711 443.563,627.154 441.753,627.457 C439.927,627.762 439.538,626.157 439.538,626.157 C439.538,626.157 428.779,589.61 443.951,554.673 C469.835,495.068 465.31,475.81 467.263,445.983 C488.516,446.203 488.275,412.858 479.702,383.109 C471.128,353.36 460.955,324.149 448.88,338.756 L426.403,306.954 C417.576,294.465 392.87,278.65 366.988,250.693 C366.988,250.693 353.128,238.559 341.813,216.563 C330.499,194.567 330.848,184.062 330.848,184.062 C330.848,184.062 330.688,182.91 331.887,182.704 C333.027,182.509 333.304,183.496 333.304,183.496 z" fill-opacity="0" stroke="#552200" stroke-width="0.8"/>
    </g>
    <path d="M352.514,574.196 C354.021,583.975 292.215,596.801 214.467,602.843 C136.719,608.885 72.47,605.855 70.963,596.076 C69.456,586.297 131.261,573.472 209.009,567.43 C286.758,561.387 351.007,564.417 352.514,574.196 z" fill="#AC9393" fill-opacity="0.718" id="path4641"/>
    <g id="g4645">
      <g id="path3490">
        <path d="M191.79,255.957 C182.341,258.281 175.318,335.162 165.214,368.77 C155.109,402.378 135.899,436.223 133.756,485.38 C131.614,534.536 139.346,556.682 143.946,570.183 C148.547,583.685 161.243,585.485 161.243,585.485 C161.243,585.485 168.165,587.571 183.112,575.413 C198.06,563.255 198.763,558.253 207.903,548.773 C217.044,539.292 225.737,533.794 233.737,532.933 C241.738,532.071 249.73,535.472 257.143,541.106 C265.082,547.138 269.827,550.366 286.705,565.108 C303.583,579.851 322.172,573.671 322.172,573.671 C322.172,573.671 333.234,567.689 334.976,542.871 C336.718,518.052 333.65,492.835 315.993,446.329 C298.335,399.822 251.08,320.499 241.688,307.482 C232.296,294.465 203.921,252.973 191.79,255.957 z" fill="#FFFFFF"/>
        <path d="M191.79,255.957 C182.341,258.281 175.318,335.162 165.214,368.77 C155.109,402.378 135.899,436.223 133.756,485.38 C131.614,534.536 139.346,556.682 143.946,570.183 C148.547,583.685 161.243,585.485 161.243,585.485 C161.243,585.485 168.165,587.571 183.112,575.413 C198.06,563.255 198.763,558.253 207.903,548.773 C217.044,539.292 225.737,533.794 233.737,532.933 C241.738,532.071 249.73,535.472 257.143,541.106 C265.082,547.138 269.827,550.366 286.705,565.108 C303.583,579.851 322.172,573.671 322.172,573.671 C322.172,573.671 333.234,567.689 334.976,542.871 C336.718,518.052 333.65,492.835 315.993,446.329 C298.335,399.822 251.08,320.499 241.688,307.482 C232.296,294.465 203.921,252.973 191.79,255.957 z" fill-opacity="0" stroke="#000000" stroke-width="2.72" stroke-linejoin="round"/>
      </g>
      <g id="path4316">
        <path d="M193.228,257.632 C192.818,257.641 192.424,257.691 192.045,257.784 C182.596,260.108 175.573,336.99 165.469,370.598 C159.545,390.301 150.494,410.091 143.584,432.995 C170.841,425.265 199.973,419.589 229.575,416.242 C253.491,413.565 277.417,412.44 300.595,412.904 C279.235,369.306 249.221,319.399 241.942,309.31 C232.843,296.7 205.93,257.366 193.228,257.632 z" fill="#000000"/>
        <path d="M193.228,257.632 C192.818,257.641 192.424,257.691 192.045,257.784 C182.596,260.108 175.573,336.99 165.469,370.598 C159.545,390.301 150.494,410.091 143.584,432.995 C170.841,425.265 199.973,419.589 229.575,416.242 C253.491,413.565 277.417,412.44 300.595,412.904 C279.235,369.306 249.221,319.399 241.942,309.31 C232.843,296.7 205.93,257.366 193.228,257.632 z" fill-opacity="0" stroke="#000000" stroke-width="2.72" stroke-linejoin="round"/>
      </g>
    </g>
    <g id="path4292">
      <path d="M290.842,384.254 C290.842,407.524 269.992,426.388 244.272,426.388 C218.552,426.388 197.701,407.524 197.701,384.254 C197.701,360.983 218.552,342.119 244.272,342.119 C269.992,342.119 290.842,360.983 290.842,384.254 z" fill="#D40000"/>
      <path d="M290.842,384.254 C290.842,407.524 269.992,426.388 244.272,426.388 C218.552,426.388 197.701,407.524 197.701,384.254 C197.701,360.983 218.552,342.119 244.272,342.119 C269.992,342.119 290.842,360.983 290.842,384.254 z" fill-opacity="0" stroke="#000000" stroke-width="2.72" stroke-linejoin="round"/>
    </g>
    <g id="g4325">
      <path d="M289.363,384.254 C289.363,406.708 268.734,424.91 243.286,424.91 C217.838,424.91 197.209,406.708 197.209,384.254 C197.209,361.8 217.838,343.597 243.286,343.597 C268.734,343.597 289.363,361.8 289.363,384.254 z" fill="url(#Gradient_1)" id="ellipse4294"/>
      <path d="M287.885,378.833 C287.885,398.293 268.579,414.068 244.764,414.068 C220.95,414.068 201.644,398.293 201.644,378.833 C201.644,359.373 220.95,343.597 244.764,343.597 C268.579,343.597 287.885,359.373 287.885,378.833 z" fill="url(#Gradient_2)" id="ellipse4306"/>
    </g>
    <g id="path4331">
      <path d="M304.971,416.918 C304.971,416.918 314.634,421.42 317.204,425.678 C320.021,430.347 322.533,435.684 324.37,443.14 C326.206,450.596 323.801,461.231 323.801,461.231 L314.394,439.897 z" fill="#000000"/>
      <path d="M304.971,416.918 C304.971,416.918 314.634,421.42 317.204,425.678 C320.021,430.347 322.533,435.684 324.37,443.14 C326.206,450.596 323.801,461.231 323.801,461.231 L314.394,439.897 z" fill-opacity="0" stroke="#000000" stroke-width="0.8"/>
    </g>
    <g id="path4337">
      <path d="M320.068,432.521 C320.068,432.521 334.995,440.87 346.687,440.46 C358.378,440.049 388.015,425.788 388.015,425.788 L425.142,411.039 L423.274,403.567 L389.997,420.029 C389.997,420.029 358.917,435.767 348.088,436.724 C337.259,437.68 319.601,429.719 319.601,429.719 z" fill="#000000"/>
      <path d="M320.068,432.521 C320.068,432.521 334.995,440.87 346.687,440.46 C358.378,440.049 388.015,425.788 388.015,425.788 L425.142,411.039 L423.274,403.567 L389.997,420.029 C389.997,420.029 358.917,435.767 348.088,436.724 C337.259,437.68 319.601,429.719 319.601,429.719 z" fill-opacity="0" stroke="#000000" stroke-width="0.8"/>
    </g>
    <g id="path4339">
      <path d="M133.779,477.471 C133.779,477.471 129.923,472.691 129.223,466.761 C128.524,460.83 130.254,447.953 133.256,442.906 C136.259,437.86 141.945,436.095 141.945,436.095 L138.679,456.783 z" fill="#000000"/>
      <path d="M133.779,477.471 C133.779,477.471 129.923,472.691 129.223,466.761 C128.524,460.83 130.254,447.953 133.256,442.906 C136.259,437.86 141.945,436.095 141.945,436.095 L138.679,456.783 z" fill-opacity="0" stroke="#000000" stroke-width="0.8"/>
    </g>
    <g id="path4343">
      <path d="M117.303,408.672 C115.301,408.681 113.49,409.288 112.106,410.642 C104.726,417.865 121.267,430.413 111.15,436.344 C101.033,442.274 97.782,446.834 94.573,450.883 C92.543,453.445 91.402,457.034 90.959,460.747 C90.96,460.674 90.956,460.184 90.956,460.184 C90.956,460.184 87.629,461.707 86.498,464.451 C85.367,467.196 86.388,473.849 88.179,476.428 C89.97,479.007 93.281,479.095 93.281,479.095 C93.281,479.095 92.993,477.931 92.804,477.183 C94.277,480.749 97.018,484.722 102.365,489.136 C108.571,494.259 120.996,495.185 130.686,495.014 C134.131,499.21 136.395,501.361 136.395,501.361 C141.917,507.524 144.111,515.19 150.6,514.662 C156.58,514.176 158.148,500.732 154.318,492.951 C151.348,486.916 144.525,481.604 139.389,479.553 C147.436,479.527 157.268,478.034 159.879,477.208 C164.005,475.902 166.586,473.329 165.903,466.608 C165.22,459.886 160.601,459.384 157.346,458.68 C156.254,458.443 153.14,458.505 149.387,458.781 C152.691,457.933 155.367,457.088 156.503,456.572 C160.305,454.844 162.479,452.08 161.05,445.709 C159.62,439.339 155.138,439.389 151.939,439.087 C149.301,438.839 135.588,441.549 128.354,444.508 C129.948,442.051 132.467,437.451 134.948,429.88 C138.249,419.803 125.979,408.632 117.303,408.672 z" fill="#000000"/>
      <path d="M117.303,408.672 C115.301,408.681 113.49,409.288 112.106,410.642 C104.726,417.865 121.267,430.413 111.15,436.344 C101.033,442.274 97.782,446.834 94.573,450.883 C92.543,453.445 91.402,457.034 90.959,460.747 C90.96,460.674 90.956,460.184 90.956,460.184 C90.956,460.184 87.629,461.707 86.498,464.451 C85.367,467.196 86.388,473.849 88.179,476.428 C89.97,479.007 93.281,479.095 93.281,479.095 C93.281,479.095 92.993,477.931 92.804,477.183 C94.277,480.749 97.018,484.722 102.365,489.136 C108.571,494.259 120.996,495.185 130.686,495.014 C134.131,499.21 136.395,501.361 136.395,501.361 C141.917,507.524 144.111,515.19 150.6,514.662 C156.58,514.176 158.148,500.732 154.318,492.951 C151.348,486.916 144.525,481.604 139.389,479.553 C147.436,479.527 157.268,478.034 159.879,477.208 C164.005,475.902 166.586,473.329 165.903,466.608 C165.22,459.886 160.601,459.384 157.346,458.68 C156.254,458.443 153.14,458.505 149.387,458.781 C152.691,457.933 155.367,457.088 156.503,456.572 C160.305,454.844 162.479,452.08 161.05,445.709 C159.62,439.339 155.138,439.389 151.939,439.087 C149.301,438.839 135.588,441.549 128.354,444.508 C129.948,442.051 132.467,437.451 134.948,429.88 C138.249,419.803 125.979,408.632 117.303,408.672 z" fill-opacity="0" stroke="#FFFFFF" stroke-width="0.894"/>
    </g>
    <g id="path4366">
      <path d="M86.894,468.445 C86.894,468.445 70.573,474.708 68.219,471.141 C68.219,471.141 64.148,467.214 72.183,461.322 C80.218,455.43 131.123,456.155 131.123,456.155 L133.389,443.121 C133.389,443.121 76.751,452.771 69.08,459.452 C64.319,463.599 63.623,465.726 63.681,469.114 C63.764,474.006 66.096,475.596 69.634,475.845 L87.124,474.036 z" fill="#000000"/>
      <path d="M86.894,468.445 C86.894,468.445 70.573,474.708 68.219,471.141 C68.219,471.141 64.148,467.214 72.183,461.322 C80.218,455.43 131.123,456.155 131.123,456.155 L133.389,443.121 C133.389,443.121 76.751,452.771 69.08,459.452 C64.319,463.599 63.623,465.726 63.681,469.114 C63.764,474.006 66.096,475.596 69.634,475.845 L87.124,474.036 z" fill-opacity="0" stroke="#000000" stroke-width="0.8"/>
    </g>
    <path d="M147.925,458.843 L558.243,354.861" fill-opacity="0" stroke="#000000" stroke-width="4.4" id="path4329"/>
    <path d="M268.694,359.029 C268.694,363.581 261.728,367.271 253.136,367.271 C244.543,367.271 237.578,363.581 237.578,359.029 C237.578,354.477 244.543,350.787 253.136,350.787 C261.728,350.787 268.694,354.477 268.694,359.029 z" fill="#F2F2F2" fill-opacity="0.718" id="path4384"/>
    <g id="path3357">
      <path d="M427.99,401.669 C427.502,396.056 428.498,389.441 431.706,385.392 C434.915,381.343 438.165,376.784 448.282,370.853 C458.399,364.922 441.859,352.374 449.239,345.152 C456.619,337.929 476.144,351.988 472.08,364.389 C468.017,376.791 463.823,381.297 463.823,381.297 L481.254,428.593 C481.254,428.593 450.538,432.758 439.499,423.646 C428.459,414.534 428.478,407.281 427.99,401.669 z" fill="#000000"/>
      <path d="M427.99,401.669 C427.502,396.056 428.498,389.441 431.706,385.392 C434.915,381.343 438.165,376.784 448.282,370.853 C458.399,364.922 441.859,352.374 449.239,345.152 C456.619,337.929 476.144,351.988 472.08,364.389 C468.017,376.791 463.823,381.297 463.823,381.297 L481.254,428.593 C481.254,428.593 450.538,432.758 439.499,423.646 C428.459,414.534 428.478,407.281 427.99,401.669 z" fill-opacity="0" stroke="#000000" stroke-width="1.04"/>
    </g>
    <g id="path3391">
      <path d="M428.089,394.694 C428.089,394.694 424.763,396.216 423.631,398.961 C422.5,401.706 423.522,408.359 425.313,410.938 C427.104,413.517 430.413,413.605 430.413,413.605 C430.413,413.605 428.802,407.522 428.415,404.37 C428.028,401.218 428.089,394.694 428.089,394.694 z" fill="#000000"/>
      <path d="M428.089,394.694 C428.089,394.694 424.763,396.216 423.631,398.961 C422.5,401.706 423.522,408.359 425.313,410.938 C427.104,413.517 430.413,413.605 430.413,413.605 C430.413,413.605 428.802,407.522 428.415,404.37 C428.028,401.218 428.089,394.694 428.089,394.694 z" fill-opacity="0" stroke="#FFFFFF" stroke-width="1.04"/>
    </g>
    <g id="path3361">
      <path d="M474.935,414.968 C472.816,416.08 470.995,423.458 474.556,426.654 C478.118,429.849 496.206,428.544 499.611,427.711 C503.016,426.878 505.234,424.979 505.024,419.67 C504.813,414.36 501.101,413.75 498.504,413.045 C495.906,412.34 479.153,412.756 474.935,414.968 z" fill="#000000"/>
      <path d="M474.935,414.968 C472.816,416.08 470.995,423.458 474.556,426.654 C478.118,429.849 496.206,428.544 499.611,427.711 C503.016,426.878 505.234,424.979 505.024,419.67 C504.813,414.36 501.101,413.75 498.504,413.045 C495.906,412.34 479.153,412.756 474.935,414.968 z" fill-opacity="0" stroke="#FFFFFF" stroke-width="1.04"/>
    </g>
    <g id="path3383">
      <path d="M470.969,396.984 C468.448,398.55 466.795,408.045 471.434,411.838 C476.074,415.632 498.241,412.651 502.367,411.345 C506.493,410.039 509.072,407.467 508.39,400.746 C507.707,394.024 503.088,393.522 499.833,392.818 C496.578,392.113 475.986,393.868 470.969,396.984 z" fill="#000000"/>
      <path d="M470.969,396.984 C468.448,398.55 466.795,408.045 471.434,411.838 C476.074,415.632 498.241,412.651 502.367,411.345 C506.493,410.039 509.072,407.467 508.39,400.746 C507.707,394.024 503.088,393.522 499.833,392.818 C496.578,392.113 475.986,393.868 470.969,396.984 z" fill-opacity="0" stroke="#FFFFFF" stroke-width="1.04"/>
    </g>
    <g id="path3359">
      <path d="M466.396,381.059 C464.161,382.851 463.672,392.151 468.554,395.257 C473.437,398.362 494.329,392.952 498.131,391.225 C501.933,389.497 504.107,386.733 502.678,380.362 C501.249,373.991 496.766,374.042 493.567,373.74 C490.368,373.439 470.842,377.491 466.396,381.059 z" fill="#000000"/>
      <path d="M466.396,381.059 C464.161,382.851 463.672,392.151 468.554,395.257 C473.437,398.362 494.329,392.952 498.131,391.225 C501.933,389.497 504.107,386.733 502.678,380.362 C501.249,373.991 496.766,374.042 493.567,373.74 C490.368,373.439 470.842,377.491 466.396,381.059 z" fill-opacity="0" stroke="#FFFFFF" stroke-width="1.04"/>
    </g>
    <path d="M147.925,498.09 L145,537.333 C145,537.333 146.365,570.321 157.077,574 C167.79,577.679 170.691,574.631 185.692,560 C200.693,545.369 219,527.333 219,527.333" fill-opacity="0" stroke="#B9B9B9" stroke-width="3.68" id="path4535"/>
    <g id="path5017">
      <path d="M332.73,187.818 L151.962,439.205" fill="#E6E6E6"/>
      <path d="M332.73,187.818 L151.962,439.205" fill-opacity="0" stroke="#999999" stroke-width="1.52"/>
    </g>
    <g id="path5019">
      <path d="M157.077,477.246 L439.713,624.233" fill="#E3DBDB"/>
      <path d="M157.077,477.246 L439.713,624.233" fill-opacity="0" stroke="#999999" stroke-width="1.52"/>
    </g>
    <path d="M266.07,530.139 C266.07,530.139 296.716,563.079 308.545,563.799 C320.373,564.519 322.97,554.983 322.97,554.983" fill-opacity="0" stroke="#CCCCCC" stroke-width="5.44" id="path5021"/>
    <path d="M149.915,458.075 C279.708,425.15 429.119,385.988 560.119,355.074" fill-opacity="0" stroke="#ECECEC" stroke-width="1.52" id="path5150"/>
    <g id="path5156">
      <path d="M416.91,295.438 L433.881,291.478 L439.973,296.699 L422.001,301.095 z" fill="#241C1C"/>
      <path d="M416.91,295.438 L433.881,291.478 L439.973,296.699 L422.001,301.095 z" fill-opacity="0" stroke="#000000" stroke-width="0.8"/>
    </g>
    <g id="path5158">
      <path d="M428.744,310.404 L449.543,305.052 L455.635,310.622 L433.835,316.061 z" fill="#241C1C"/>
      <path d="M428.744,310.404 L449.543,305.052 L455.635,310.622 L433.835,316.061 z" fill-opacity="0" stroke="#000000" stroke-width="0.8"/>
    </g>
    <g id="path5160">
      <path d="M466.253,474.682 L489.489,468.286 L487.227,476.292 L466.123,481.731 z" fill="#241C1C"/>
      <path d="M466.253,474.682 L489.489,468.286 L487.227,476.292 L466.123,481.731 z" fill-opacity="0" stroke="#000000" stroke-width="0.8"/>
    </g>
    <g id="path5162">
      <path d="M464.513,492.085 L484.616,487.081 L482.355,494.043 L463.687,498.09 z" fill="#241C1C"/>
      <path d="M464.513,492.085 L484.616,487.081 L482.355,494.043 L463.687,498.09 z" fill-opacity="0" stroke="#000000" stroke-width="0.8"/>
    </g>
    <g id="path5164">
      <path d="M204.353,443.843 L184.8,437.89 L160.8,441.89 L180,450.69 L167.458,466.126 L191.879,457.656 z" fill="#AA0000"/>
      <path d="M204.353,443.843 L184.8,437.89 L160.8,441.89 L180,450.69 L167.458,466.126 L191.879,457.656 z" fill-opacity="0" stroke="#800000" stroke-width="0.8"/>
    </g>
    <path d="M184.636,437.89 L160.636,441.89 L179.637,450.599 L203.834,443.735 L184.636,437.89 z" fill="#D45500" id="path5166"/>
    <path d="M167.897,440.682 L185.692,448.756 L173.829,463.915" fill-opacity="0" stroke="#800000" stroke-width="0.8" id="path5172"/>
    <path d="M174.323,439.529 L191.294,447.273 L179.925,461.608" fill-opacity="0" stroke="#800000" stroke-width="0.8" id="path5174"/>
    <path d="M181.738,438.376 L197.885,445.79 L186.846,459.301" fill-opacity="0" stroke="#800000" stroke-width="0.8" id="path5176"/>
    <path d="M332.217,187.616 C332.217,187.616 338.146,210.651 354.027,234.1 C369.907,257.55 390.4,272.29 390.4,272.29 C390.4,272.29 412.187,287.134 427.603,305.276 C443.019,323.419 449.047,336.596 449.047,336.596 L459.26,330.72 L466.4,327.49" fill-opacity="0" stroke="#000000" stroke-width="1.76" id="path5178"/>
    <path d="M468.979,447.615 L467.319,488.288 L461.232,513.743 L454.315,532.834 L446.845,553.032 L441.311,566.313 L437.714,581.53 L436.884,597.024 L437.437,610.305 L439.374,622.479 L440.757,625.246" fill-opacity="0" stroke="#000000" stroke-width="0.88" id="path5188"/>
    <path d="M468.149,447.338 L477.28,444.572 L486.41,442.912 L494.711,443.188" fill-opacity="0" stroke="#000000" stroke-width="0.96" id="path5198"/>
    <path d="M451.548,334.451 L461.509,330.578 L468.149,327.258" fill-opacity="0" stroke="#000000" stroke-width="0.96" id="path5232"/>
    <path d="M344.195,183.659 C344.195,187.785 341.098,191.129 337.278,191.129 C333.458,191.129 330.361,187.785 330.361,183.659 C330.361,179.533 333.458,176.188 337.278,176.188 C341.098,176.188 344.195,179.533 344.195,183.659 z" fill="#502D16" id="path5250"/>
    <path d="M452.655,623.586 C452.655,627.712 449.558,631.057 445.738,631.057 C441.918,631.057 438.821,627.712 438.821,623.586 C438.821,619.46 441.918,616.116 445.738,616.116 C449.558,616.116 452.655,619.46 452.655,623.586 z" fill="#502D16" id="ellipse5252"/>
    <g>
      <path d="M583.308,349.651 C583.308,349.651 551.346,334.58 543.113,333.124 C534.881,331.668 524.398,336.52 524.185,347.135 C523.971,357.865 534.407,361.09 534.407,361.09 C534.407,361.09 527.133,369.467 531.437,378.132 C536.579,388.485 549.26,385.472 554.428,381.491 C562.308,375.42 583.308,349.651 583.308,349.651 z" fill="#941100"/>
      <path d="M583.308,349.651 C583.308,349.651 551.346,334.58 543.113,333.124 C534.881,331.668 524.398,336.52 524.185,347.135 C523.971,357.865 534.407,361.09 534.407,361.09 C534.407,361.09 527.133,369.467 531.437,378.132 C536.579,388.485 549.26,385.472 554.428,381.491 C562.308,375.42 583.308,349.651 583.308,349.651 z" fill-opacity="0" stroke="#000000" stroke-width="2"/>
    </g>
    <path d="M575.561,350.442 C575.561,350.442 551.049,339.846 544.709,338.88 C538.369,337.914 530.22,341.558 529.937,349.276 C529.651,357.077 537.673,359.305 537.673,359.305 C537.673,359.305 531.962,365.475 535.189,371.725 C539.043,379.192 548.869,376.86 552.904,373.909 C559.057,369.408 575.561,350.442 575.561,350.442 z" fill="#B61800"/>
    <path d="M548.184,358.036 C539.38,356.411 533.006,350.961 533.947,345.863 C534.888,340.765 542.788,337.95 551.592,339.575 C560.396,341.201 566.77,346.651 565.829,351.749 C564.888,356.846 556.988,359.661 548.184,358.036 z" fill="#DA1E00"/>
  </g>
</svg>
