<?xml version="1.0" encoding="UTF-8" standalone="no"?>
<!-- Created with Inkscape (http://www.inkscape.org/) -->

<svg
   xmlns:dc="http://purl.org/dc/elements/1.1/"
   xmlns:cc="http://creativecommons.org/ns#"
   xmlns:rdf="http://www.w3.org/1999/02/22-rdf-syntax-ns#"
   xmlns:svg="http://www.w3.org/2000/svg"
   xmlns="http://www.w3.org/2000/svg"
   xmlns:xlink="http://www.w3.org/1999/xlink"
   xmlns:sodipodi="http://sodipodi.sourceforge.net/DTD/sodipodi-0.dtd"
   xmlns:inkscape="http://www.inkscape.org/namespaces/inkscape"
   width="210mm"
   height="297mm"
   viewBox="0 0 744.09448819 1052.3622047"
   id="svg2"
   version="1.1"
   inkscape:version="0.91 r13725"
   sodipodi:docname="duke-artemis.svg">
  <defs
     id="defs4">
    <linearGradient
       inkscape:collect="always"
       id="linearGradient4442">
      <stop
         style="stop-color:#808080;stop-opacity:1;"
         offset="0"
         id="stop4444" />
      <stop
         style="stop-color:#808080;stop-opacity:0;"
         offset="1"
         id="stop4446" />
    </linearGradient>
    <linearGradient
       inkscape:collect="always"
       id="linearGradient4428">
      <stop
         style="stop-color:#ffffff;stop-opacity:1;"
         offset="0"
         id="stop4430" />
      <stop
         style="stop-color:#ffffff;stop-opacity:0;"
         offset="1"
         id="stop4432" />
    </linearGradient>
    <linearGradient
       inkscape:collect="always"
       id="linearGradient4382">
      <stop
         style="stop-color:#ffffff;stop-opacity:1;"
         offset="0"
         id="stop4384" />
      <stop
         style="stop-color:#ffffff;stop-opacity:0;"
         offset="1"
         id="stop4386" />
    </linearGradient>
    <linearGradient
       inkscape:collect="always"
       id="linearGradient4350">
      <stop
         style="stop-color:#ffffff;stop-opacity:1;"
         offset="0"
         id="stop4352" />
      <stop
         style="stop-color:#ffffff;stop-opacity:0;"
         offset="1"
         id="stop4354" />
    </linearGradient>
    <linearGradient
       id="linearGradient4296"
       inkscape:collect="always">
      <stop
         id="stop4344"
         offset="0"
         style="stop-color:#800000;stop-opacity:1;" />
      <stop
         id="stop4346"
         offset="1"
         style="stop-color:#800000;stop-opacity:0;" />
    </linearGradient>
    <linearGradient
       inkscape:collect="always"
       id="linearGradient4308">
      <stop
         style="stop-color:#ffaaaa;stop-opacity:1;"
         offset="0"
         id="stop4310" />
      <stop
         style="stop-color:#ffaaaa;stop-opacity:0;"
         offset="1"
         id="stop4312" />
    </linearGradient>
    <linearGradient
       inkscape:collect="always"
       xlink:href="#linearGradient4296"
       id="linearGradient4304"
       x1="356.05173"
       y1="512.43256"
       x2="385.00403"
       y2="442.20779"
       gradientUnits="userSpaceOnUse"
       gradientTransform="matrix(1.1197605,0,0,1.1073825,-41.910571,-54.534332)" />
    <linearGradient
       inkscape:collect="always"
       xlink:href="#linearGradient4308"
       id="linearGradient4314"
       x1="404.10025"
       y1="397.23935"
       x2="366.52386"
       y2="503.19244"
       gradientUnits="userSpaceOnUse"
       gradientTransform="matrix(1.0000001,0,0,0.91082804,0.6160065,35.677649)" />
    <filter
       inkscape:collect="always"
       style="color-interpolation-filters:sRGB"
       id="filter4380"
       x="-0.022017168"
       width="1.0440343"
       y="-0.098653829"
       height="1.1973077">
      <feGaussianBlur
         inkscape:collect="always"
         stdDeviation="0.55289017"
         id="feGaussianBlur4382" />
    </filter>
    <filter
       inkscape:collect="always"
       style="color-interpolation-filters:sRGB"
       id="filter4510"
       x="-0.30000001"
       width="1.6"
       y="-0.44999999"
       height="1.9">
      <feGaussianBlur
         inkscape:collect="always"
         stdDeviation="4.663993"
         id="feGaussianBlur4512" />
    </filter>
    <filter
       inkscape:collect="always"
       style="color-interpolation-filters:sRGB"
       id="filter4637"
       x="-0.27919454"
       width="1.5583891"
       y="-0.29737897"
       height="1.5947579">
      <feGaussianBlur
         inkscape:collect="always"
         stdDeviation="10.966581"
         id="feGaussianBlur4639" />
    </filter>
    <filter
       inkscape:collect="always"
       style="color-interpolation-filters:sRGB"
       id="filter4769"
       x="-0.074053756"
       width="1.1481075"
       y="-0.31615927"
       height="1.6323185">
      <feGaussianBlur
         inkscape:collect="always"
         stdDeviation="10.450068"
         id="feGaussianBlur4771" />
    </filter>
    <filter
       inkscape:collect="always"
       style="color-interpolation-filters:sRGB"
       id="filter5127"
       x="-0.23883468"
       width="1.4776694"
       y="-0.40327945"
       height="1.8065589">
      <feGaussianBlur
         inkscape:collect="always"
         stdDeviation="7.0780201"
         id="feGaussianBlur5129" />
    </filter>
    <filter
       inkscape:collect="always"
       style="color-interpolation-filters:sRGB"
       id="filter5152"
       x="-0.0074976888"
       width="1.0149954"
       y="-0.030037036"
       height="1.0600741">
      <feGaussianBlur
         inkscape:collect="always"
         stdDeviation="1.5237652"
         id="feGaussianBlur5154" />
    </filter>
    <filter
       inkscape:collect="always"
       style="color-interpolation-filters:sRGB"
       id="filter5184"
       x="-0.025012048"
       width="1.0500241"
       y="-0.023066667"
       height="1.0461333">
      <feGaussianBlur
         inkscape:collect="always"
         stdDeviation="1.73"
         id="feGaussianBlur5186" />
    </filter>
    <filter
       inkscape:collect="always"
       style="color-interpolation-filters:sRGB"
       id="filter5194"
       x="-0.077230762"
       width="1.1544615"
       y="-0.014207547"
       height="1.0284151">
      <feGaussianBlur
         inkscape:collect="always"
         stdDeviation="1.3021438"
         id="feGaussianBlur5196" />
    </filter>
    <filter
       inkscape:collect="always"
       style="color-interpolation-filters:sRGB"
       id="filter5228"
       x="-0.049000002"
       width="1.098"
       y="-0.29399992"
       height="1.5879998">
      <feGaussianBlur
         inkscape:collect="always"
         stdDeviation="0.67787562"
         id="feGaussianBlur5230" />
    </filter>
    <filter
       inkscape:collect="always"
       style="color-interpolation-filters:sRGB"
       id="filter5246"
       x="-0.0172"
       width="1.0344"
       y="-0.039692308"
       height="1.0793846">
      <feGaussianBlur
         inkscape:collect="always"
         stdDeviation="0.14871765"
         id="feGaussianBlur5248" />
    </filter>
    <filter
       inkscape:collect="always"
       style="color-interpolation-filters:sRGB"
       id="filter5272"
       x="-0.018584688"
       width="1.0371694"
       y="-0.57214166"
       height="2.1442833">
      <feGaussianBlur
         inkscape:collect="always"
         stdDeviation="0.43664183"
         id="feGaussianBlur5274" />
    </filter>
    <radialGradient
       inkscape:collect="always"
       xlink:href="#linearGradient4350"
       id="radialGradient4364"
       cx="199.66653"
       cy="398.83163"
       fx="199.66653"
       fy="398.83163"
       r="6.202415"
       gradientTransform="matrix(1,0,0,0.9739776,-1.810574,15.280856)"
       gradientUnits="userSpaceOnUse" />
    <radialGradient
       inkscape:collect="always"
       xlink:href="#linearGradient4350"
       id="radialGradient4370"
       gradientUnits="userSpaceOnUse"
       gradientTransform="matrix(1,0,0,0.9739776,23.367996,9.30628)"
       cx="199.66653"
       cy="398.83163"
       fx="199.66653"
       fy="398.83163"
       r="6.202415" />
    <radialGradient
       inkscape:collect="always"
       xlink:href="#linearGradient4350"
       id="radialGradient4374"
       gradientUnits="userSpaceOnUse"
       gradientTransform="matrix(1,0,0,0.9739776,49.826833,4.825348)"
       cx="199.66653"
       cy="398.83163"
       fx="199.66653"
       fy="398.83163"
       r="6.202415" />
    <radialGradient
       inkscape:collect="always"
       xlink:href="#linearGradient4350"
       id="radialGradient4378"
       gradientUnits="userSpaceOnUse"
       gradientTransform="matrix(1,0,0,0.9739776,126.42944,-3.2830052)"
       cx="199.66653"
       cy="398.83163"
       fx="199.66653"
       fy="398.83163"
       r="6.202415" />
    <linearGradient
       inkscape:collect="always"
       xlink:href="#linearGradient4382"
       id="linearGradient4388"
       x1="310.03784"
       y1="332.74585"
       x2="273.55023"
       y2="354.72375"
       gradientUnits="userSpaceOnUse" />
    <filter
       inkscape:collect="always"
       style="color-interpolation-filters:sRGB"
       id="filter4422"
       x="-0.084151416"
       width="1.1683028"
       y="-0.062915096"
       height="1.1258302">
      <feGaussianBlur
         inkscape:collect="always"
         stdDeviation="2.3716934"
         id="feGaussianBlur4424" />
    </filter>
    <linearGradient
       inkscape:collect="always"
       xlink:href="#linearGradient4428"
       id="linearGradient4434"
       x1="261.62735"
       y1="428.46997"
       x2="235.97763"
       y2="458.04263"
       gradientUnits="userSpaceOnUse"
       gradientTransform="translate(0.9052809,3.3193777)" />
    <filter
       inkscape:collect="always"
       style="color-interpolation-filters:sRGB"
       id="filter4436"
       x="-0.01463793"
       width="1.0292759"
       y="-0.010167665"
       height="1.0203353">
      <feGaussianBlur
         inkscape:collect="always"
         stdDeviation="0.2134964"
         id="feGaussianBlur4438" />
    </filter>
    <linearGradient
       inkscape:collect="always"
       xlink:href="#linearGradient4442"
       id="linearGradient4448"
       x1="260.11856"
       y1="362.83682"
       x2="253.17804"
       y2="366.45795"
       gradientUnits="userSpaceOnUse"
       gradientTransform="translate(-1.5088123,4.5264243)" />
    <filter
       inkscape:collect="always"
       style="color-interpolation-filters:sRGB"
       id="filter4583"
       x="-0.038181819"
       width="1.0763636"
       y="-0.0175"
       height="1.035">
      <feGaussianBlur
         inkscape:collect="always"
         stdDeviation="0.5808912"
         id="feGaussianBlur4585" />
    </filter>
    <filter
       inkscape:collect="always"
       style="color-interpolation-filters:sRGB"
       id="filter4646"
       x="-0.10703226"
       width="1.2140645"
       y="-0.39035295"
       height="1.7807059">
      <feGaussianBlur
         inkscape:collect="always"
         stdDeviation="0.8343713"
         id="feGaussianBlur4648" />
    </filter>
  </defs>
  <sodipodi:namedview
     id="base"
     pagecolor="#ffffff"
     bordercolor="#666666"
     borderopacity="1.0"
     inkscape:pageopacity="0.0"
     inkscape:pageshadow="2"
     inkscape:zoom="1"
     inkscape:cx="614.5"
     inkscape:cy="584.5"
     inkscape:document-units="px"
     inkscape:current-layer="layer1"
     showgrid="false"
     inkscape:window-width="1563"
     inkscape:window-height="877"
     inkscape:window-x="1484"
     inkscape:window-y="60"
     inkscape:window-maximized="0"
     showguides="false" />
  <metadata
     id="metadata7">
    <rdf:RDF>
      <cc:Work
         rdf:about="">
        <dc:format>image/svg+xml</dc:format>
        <dc:type
           rdf:resource="http://purl.org/dc/dcmitype/StillImage" />
        <dc:title></dc:title>
      </cc:Work>
    </rdf:RDF>
  </metadata>
  <g
     inkscape:label="Layer 1"
     inkscape:groupmode="layer"
     id="layer1">
    <ellipse
       style="fill:#ac9393;fill-opacity:0.71794876;stroke:none;stroke-width:1.10000002;stroke-linejoin:round;stroke-miterlimit:4;stroke-dasharray:none;stroke-dashoffset:0;filter:url(#filter4769)"
       id="path4641"
       cx="268.34183"
       cy="750.12939"
       rx="169.64075"
       ry="38.346313"
       transform="matrix(1.0373069,-0.0806123,0.08895561,0.57719727,-80.408115,320.07925)"
       inkscape:export-xdpi="90"
       inkscape:export-ydpi="90" />
    <g
       id="g4645"
       inkscape:export-xdpi="90"
       inkscape:export-ydpi="90">
      <path
         sodipodi:nodetypes="szzzczzzszczzzs"
         inkscape:connector-curvature="0"
         id="path3490"
         d="m 240.9446,318.96748 c -11.81117,2.90496 -20.5895,99.00628 -33.22019,141.01628 -12.63069,42.00999 -36.64342,84.31669 -39.32183,145.762 -2.67841,61.44532 6.98657,89.12806 12.73726,106.00459 5.75069,16.87653 21.62104,19.12698 21.62104,19.12698 0,0 8.65195,2.60754 27.33631,-12.58973 18.68436,-15.19727 19.56337,-21.44987 30.98893,-33.30075 11.42556,-11.85088 22.29218,-18.72312 32.2926,-19.79987 10.00043,-1.07676 19.99073,3.17469 29.25772,10.21635 9.92349,7.54051 15.85412,11.57481 36.95165,30.00297 21.09753,18.42815 44.33455,10.70338 44.33455,10.70338 0,0 13.82639,-7.4767 16.00414,-38.49986 2.17775,-31.02316 -1.65657,-62.54424 -23.7287,-120.67738 C 374.12595,498.7993 315.0575,399.64534 303.31717,383.37396 291.57685,367.10257 256.10854,315.2379 240.9446,318.96748 Z"
         style="fill:#ffffff;fill-rule:evenodd;stroke:#000000;stroke-width:3.4000001;stroke-linecap:butt;stroke-linejoin:round;stroke-miterlimit:4;stroke-dasharray:none;stroke-dashoffset:0;stroke-opacity:1" />
      <path
         inkscape:connector-curvature="0"
         id="path4316"
         d="m 242.74202,321.06167 c -0.51219,0.0107 -1.00465,0.0729 -1.47852,0.18945 -11.81117,2.90496 -20.59001,99.00758 -33.2207,141.01758 -7.405,24.62922 -18.71879,49.36611 -27.35547,77.9961 a 135.73179,308.96867 83.313132 0 1 107.48828,-20.94141 135.73179,308.96867 83.313132 0 1 88.7754,-4.17187 c -26.69994,-54.49759 -64.21774,-116.88198 -73.31642,-129.49219 -11.37343,-15.76291 -45.0148,-64.9309 -60.89257,-64.59766 z"
         style="fill:#000000;fill-rule:evenodd;stroke:#000000;stroke-width:3.4000001;stroke-linecap:butt;stroke-linejoin:round;stroke-miterlimit:4;stroke-dasharray:none;stroke-dashoffset:0;stroke-opacity:1" />
    </g>
    <path
       style="fill:#b3b3b3;fill-rule:evenodd;stroke:#6d7280;stroke-width:3.9000001;stroke-linecap:butt;stroke-linejoin:miter;stroke-miterlimit:4;stroke-dasharray:none;stroke-opacity:1"
       d="m 339.11692,396.32311 -15.75851,1.75188 c -2e-5,-3e-5 3.65038,8.37717 3.9133,11.27679 0.26292,2.89962 1.21726,6.37482 -1.76599,11.08346 l 18.17342,29.9562 15.37625,6.28866 7.28866,-18.42269 c 0,0 -9.35923,-2.05141 -15.7565,-12.03938 -6.39727,-9.98797 -11.47063,-29.89492 -11.47063,-29.89492 z"
       id="path4310"
       inkscape:connector-curvature="0"
       sodipodi:nodetypes="cczcccczc" />
    <ellipse
       style="fill:#d40000;stroke:#000000;stroke-width:3.4000001;stroke-linejoin:round;stroke-miterlimit:4;stroke-dasharray:none;stroke-dashoffset:0"
       id="path4292"
       cx="305.33948"
       cy="480.31702"
       rx="58.212608"
       ry="52.668552"
       inkscape:export-xdpi="90"
       inkscape:export-ydpi="90" />
    <g
       id="g4325"
       transform="translate(-68.884424,4.2288445)"
       inkscape:export-xdpi="90"
       inkscape:export-ydpi="90">
      <ellipse
         style="fill:url(#linearGradient4304);fill-opacity:1;stroke:none;stroke-width:3.4000001;stroke-linejoin:round;stroke-miterlimit:4;stroke-dasharray:none;stroke-dashoffset:0"
         id="ellipse4294"
         cx="372.99194"
         cy="476.08817"
         rx="57.596607"
         ry="50.820538" />
      <ellipse
         ry="44.044464"
         rx="53.900566"
         cy="469.3121"
         cx="374.83997"
         id="ellipse4306"
         style="fill:url(#linearGradient4314);fill-opacity:1;stroke:none;stroke-width:3.4000001;stroke-linejoin:round;stroke-miterlimit:4;stroke-dasharray:none;stroke-dashoffset:0" />
    </g>
    <path
       style="fill:#000000;fill-rule:evenodd;stroke:#000000;stroke-width:1px;stroke-linecap:butt;stroke-linejoin:miter;stroke-opacity:1"
       d="m 381.21398,521.14729 c 0,0 12.07859,5.62711 15.29063,10.94997 3.5217,5.83603 6.66191,12.5078 8.95747,21.82766 2.29556,9.31986 -0.71124,22.6137 -0.71124,22.6137 L 392.992,549.87152 Z"
       id="path4331"
       inkscape:connector-curvature="0"
       sodipodi:nodetypes="cszccc"
       inkscape:export-xdpi="90"
       inkscape:export-ydpi="90" />
    <path
       style="fill:#000000;fill-rule:evenodd;stroke:#000000;stroke-width:1px;stroke-linecap:butt;stroke-linejoin:miter;stroke-opacity:1"
       d="m 400.08532,540.65085 c 0,0 18.65906,10.43687 33.27328,9.92361 14.61422,-0.51326 51.65963,-18.33947 51.65963,-18.33947 l 46.40898,-18.43626 -2.33497,-9.33986 -41.59538,20.57765 c 0,0 -38.85121,19.6723 -52.38703,20.868 -13.53583,1.19571 -35.60825,-8.75612 -35.60825,-8.75612 z"
       id="path4337"
       inkscape:connector-curvature="0"
       sodipodi:nodetypes="czcccczcc"
       inkscape:export-xdpi="90"
       inkscape:export-ydpi="90" />
    <path
       style="fill:#000000;fill-rule:evenodd;stroke:#000000;stroke-width:1px;stroke-linecap:butt;stroke-linejoin:miter;stroke-opacity:1"
       d="m 167.22379,596.83826 c 0,0 -4.82061,-5.97395 -5.69457,-13.38754 -0.87397,-7.41359 1.28821,-23.50978 5.04137,-29.81805 3.75316,-6.30827 10.86112,-8.51453 10.86112,-8.51453 l -4.08317,25.86006 z"
       id="path4339"
       inkscape:connector-curvature="0"
       sodipodi:nodetypes="czzccc"
       inkscape:export-xdpi="90"
       inkscape:export-ydpi="90" />
    <path
       style="fill:#000000;fill-rule:evenodd;stroke:#ffffff;stroke-width:1.11800003;stroke-linecap:butt;stroke-linejoin:miter;stroke-miterlimit:4;stroke-dasharray:none;stroke-opacity:1"
       d="m 146.62851,510.83971 c -2.50265,0.0114 -4.76641,0.7701 -6.4961,2.46289 -9.22497,9.02824 11.45107,24.71342 -1.19531,32.12696 -12.64637,7.41354 -16.7098,13.11281 -20.7207,18.17383 -2.53804,3.20254 -3.96384,7.68876 -4.51758,12.33007 6.1e-4,-0.0909 -0.004,-0.70312 -0.004,-0.70312 0,0 -4.15801,1.90285 -5.57227,5.33398 -1.41427,3.43114 -0.13711,11.74715 2.10157,14.97071 2.23868,3.22355 6.37695,3.33398 6.37695,3.33398 0,0 -0.36011,-1.45538 -0.5957,-2.39062 1.84064,4.45751 5.26709,9.42426 11.95117,14.9414 7.75772,6.40334 23.288,7.56102 35.40039,7.34766 4.30713,5.24487 7.13672,7.93359 7.13672,7.93359 6.90255,7.70435 9.64499,17.28697 17.75585,16.62695 7.47547,-0.60832 9.43502,-17.41329 4.64844,-27.13867 -3.71299,-7.54406 -12.24118,-14.18382 -18.6621,-16.74804 10.05945,-0.0326 22.34899,-1.89838 25.61327,-2.93165 5.1574,-1.6325 8.38283,-4.84779 7.5293,-13.25 -0.85352,-8.4022 -6.62674,-9.02954 -10.69531,-9.91015 -1.36532,-0.29552 -5.25751,-0.21799 -9.94922,0.12695 4.12955,-1.0602 7.47481,-2.11654 8.89453,-2.76172 4.75247,-2.1597 7.47009,-5.6149 5.68359,-13.57812 -1.7865,-7.96321 -7.38951,-7.90059 -11.38867,-8.27735 -3.29678,-0.31059 -20.43859,3.07761 -29.48046,6.77539 1.99254,-3.07126 5.14138,-8.82127 8.24218,-18.28515 4.12682,-12.59535 -11.21184,-26.55908 -22.05664,-26.50977 z"
       id="path4343"
       inkscape:connector-curvature="0"
       inkscape:export-xdpi="90"
       inkscape:export-ydpi="90" />
    <path
       style="fill:#000000;fill-rule:evenodd;stroke:#000000;stroke-width:1px;stroke-linecap:butt;stroke-linejoin:miter;stroke-opacity:1"
       d="m 108.61763,585.55662 c 0,0 -20.401683,7.82844 -23.343533,3.36952 0,0 -5.08921,-4.90909 4.95429,-12.27387 10.043503,-7.36478 73.674943,-6.4585 73.674943,-6.4585 l 2.83287,-16.29227 c 0,0 -70.797043,12.06201 -80.385963,20.41381 -5.95195,5.18405 -6.8211,7.84266 -6.74836,12.07722 0.10319,6.11517 3.01864,8.10222 7.44112,8.41324 l 21.861663,-2.26048 z"
       id="path4366"
       inkscape:connector-curvature="0"
       sodipodi:nodetypes="cszccscccc"
       inkscape:export-xdpi="90"
       inkscape:export-ydpi="90" />
    <path
       style="fill:#000000;fill-rule:evenodd;stroke:#000000;stroke-width:1px;stroke-linecap:butt;stroke-linejoin:miter;stroke-opacity:1"
       d="m 707.02083,440.90013 -69.61008,0.41236 7.93981,14.68001 2.54538,17.82518 z"
       id="path4368"
       inkscape:connector-curvature="0"
       sodipodi:nodetypes="ccccc"
       inkscape:export-xdpi="90"
       inkscape:export-ydpi="90" />
    <ellipse
       style="fill:#f2f2f2;fill-opacity:0.71794876;stroke:none;stroke-width:1.29999995;stroke-linejoin:round;stroke-miterlimit:4;stroke-dasharray:none;stroke-dashoffset:0;filter:url(#filter4510)"
       id="path4384"
       cx="318.61475"
       cy="452.44467"
       rx="18.655972"
       ry="12.437315"
       transform="matrix(1.0424427,0,0,0.82836993,-15.717689,73.995076)"
       inkscape:export-xdpi="90"
       inkscape:export-ydpi="90" />
    <g
       id="g3424"
       transform="translate(-0.9313278,1.8333069)">
      <path
         inkscape:export-ydpi="90"
         inkscape:export-xdpi="90"
         sodipodi:nodetypes="cssszzcscscscsszcsc"
         inkscape:connector-curvature="0"
         id="path4514"
         d="m 416.63036,229.36967 c 0,0 8.39972,33.3505 26.05155,53.3092 17.65184,19.95869 11.91667,14.65276 47.50836,42.45737 69.98191,54.67063 88.20869,53.44855 122.7185,141.35624 3.55035,9.0439 19.86141,17.50141 3.34055,100.14287 -16.52085,82.64145 -35.16291,99.87467 -54.70529,135.62495 -19.54238,35.75028 -7.45571,79.87877 -7.45571,79.87877 0,0 0.3653,1.80349 -1.89658,2.18183 -2.28311,0.38189 -2.76877,-1.62413 -2.76877,-1.62413 0,0 -13.44873,-45.68469 5.51578,-89.35531 32.35533,-74.5064 26.69874,-98.57869 29.1398,-135.86269 26.56634,0.27481 26.26497,-41.40686 15.54851,-78.59253 -10.71646,-37.18567 -23.43314,-73.70028 -38.52719,-55.44143 l -28.09669,-39.75249 c -11.03339,-15.61054 -41.9159,-35.37956 -74.26787,-70.32619 0,0 -17.32586,-15.16753 -31.46845,-42.66226 -14.14259,-27.49474 -13.70671,-40.62593 -13.70671,-40.62593 0,0 -0.20053,-1.44038 1.29806,-1.6974 1.42605,-0.24458 1.77215,0.98913 1.77215,0.98913 z"
         style="fill:#784421;fill-rule:evenodd;stroke:#552200;stroke-width:1px;stroke-linecap:butt;stroke-linejoin:miter;stroke-opacity:1" />
      <path
         inkscape:export-ydpi="90"
         inkscape:export-xdpi="90"
         sodipodi:nodetypes="ccccc"
         inkscape:connector-curvature="0"
         id="path5156"
         d="m 521.1377,369.29705 21.2132,-4.94974 7.61514,6.52699 -22.46438,5.49382 z"
         style="fill:#241c1c;fill-rule:evenodd;stroke:#000000;stroke-width:1px;stroke-linecap:butt;stroke-linejoin:miter;stroke-opacity:1" />
      <path
         inkscape:export-ydpi="90"
         inkscape:export-xdpi="90"
         style="fill:#241c1c;fill-rule:evenodd;stroke:#000000;stroke-width:1px;stroke-linecap:butt;stroke-linejoin:miter;stroke-opacity:1"
         d="m 535.93015,388.00515 25.99899,-6.69003 7.61514,6.96206 -27.25017,6.79904 z"
         id="path5158"
         inkscape:connector-curvature="0"
         sodipodi:nodetypes="ccccc" />
      <path
         inkscape:export-ydpi="90"
         inkscape:export-xdpi="90"
         sodipodi:nodetypes="ccccc"
         inkscape:connector-curvature="0"
         id="path5160"
         d="m 582.81644,593.35302 29.0445,-7.99524 -2.82659,10.00755 -26.38003,6.79904 z"
         style="fill:#241c1c;fill-rule:evenodd;stroke:#000000;stroke-width:1px;stroke-linecap:butt;stroke-linejoin:miter;stroke-opacity:1" />
      <path
         inkscape:export-ydpi="90"
         inkscape:export-xdpi="90"
         style="fill:#241c1c;fill-rule:evenodd;stroke:#000000;stroke-width:1px;stroke-linecap:butt;stroke-linejoin:miter;stroke-opacity:1"
         d="m 580.64108,615.10663 25.12885,-6.25495 -2.82659,8.70233 -23.33452,5.05875 z"
         id="path5162"
         inkscape:connector-curvature="0"
         sodipodi:nodetypes="ccccc" />
      <path
         sodipodi:nodetypes="czczccc"
         inkscape:connector-curvature="0"
         id="path5178"
         d="m 415.27073,234.52023 c 0,0 7.41239,28.79314 27.26295,58.10492 C 462.38424,321.93694 488,340.3622 488,340.3622 c 0,0 27.2337,18.55528 46.50389,41.23316 19.27019,22.67788 26.8044,39.15026 26.8044,39.15026 L 574.07513,413.39976 583,409.3622"
         style="fill:none;fill-rule:evenodd;stroke:#000000;stroke-width:2.20000005;stroke-linecap:butt;stroke-linejoin:miter;stroke-miterlimit:4;stroke-dasharray:none;stroke-opacity:1;filter:url(#filter5184)" />
      <path
         sodipodi:nodetypes="ccccccccccc"
         inkscape:connector-curvature="0"
         id="path5188"
         d="m 586.2241,559.51894 -2.07514,50.84067 -7.6088,31.81866 -8.64638,23.86399 -9.33808,25.24741 -6.9171,16.60103 -4.49611,19.02202 -1.03757,19.36788 0.69171,16.60103 2.42099,15.21762 1.72927,3.45855"
         style="fill:none;fill-rule:evenodd;stroke:#000000;stroke-width:1.10000002;stroke-linecap:butt;stroke-linejoin:miter;stroke-miterlimit:4;stroke-dasharray:none;stroke-opacity:1;filter:url(#filter5194)" />
      <path
         inkscape:connector-curvature="0"
         id="path5198"
         d="m 585.18653,559.17309 11.41321,-3.45855 11.41321,-2.07513 10.37565,0.34585"
         style="fill:none;fill-rule:evenodd;stroke:#000000;stroke-width:1.20000005;stroke-linecap:butt;stroke-linejoin:miter;stroke-miterlimit:4;stroke-dasharray:none;stroke-opacity:1;filter:url(#filter5228)" />
      <path
         inkscape:connector-curvature="0"
         id="path5232"
         d="m 564.43523,418.06428 12.45078,-4.84197 8.30052,-4.15026"
         style="fill:none;fill-rule:evenodd;stroke:#000000;stroke-width:1.20000005;stroke-linecap:butt;stroke-linejoin:miter;stroke-miterlimit:4;stroke-dasharray:none;stroke-opacity:1;filter:url(#filter5246)" />
      <ellipse
         ry="9.3380833"
         rx="8.6463728"
         cy="229.57335"
         cx="421.59717"
         id="path5250"
         style="opacity:1;fill:#502d16;fill-opacity:1;stroke:none;stroke-width:1.20000005;stroke-linejoin:round;stroke-miterlimit:4;stroke-dasharray:none;stroke-dashoffset:0" />
      <ellipse
         style="opacity:1;fill:#502d16;fill-opacity:1;stroke:none;stroke-width:1.20000005;stroke-linejoin:round;stroke-miterlimit:4;stroke-dasharray:none;stroke-dashoffset:0"
         id="ellipse5252"
         cx="557.1723"
         cy="779.48267"
         rx="8.6463728"
         ry="9.3380833" />
    </g>
    <path
       style="fill:#e3dbdb;fill-rule:evenodd;stroke:#999999;stroke-width:1.89999998;stroke-linecap:butt;stroke-linejoin:miter;stroke-miterlimit:4;stroke-dasharray:none;stroke-opacity:1"
       d="M 193.70817,597.26959 547.0026,781.00291"
       id="path5019"
       inkscape:connector-curvature="0"
       sodipodi:nodetypes="cc"
       inkscape:export-xdpi="90"
       inkscape:export-ydpi="90" />
    <path
       style="fill:#000000;fill-rule:evenodd;stroke:#000000;stroke-width:1.29999995;stroke-linecap:butt;stroke-linejoin:miter;stroke-miterlimit:4;stroke-dasharray:none;stroke-opacity:1"
       d="m 534.98757,502.0858 c -0.61057,-7.01552 0.6347,-15.28497 4.64559,-20.34599 4.0109,-5.06101 8.07276,-10.76023 20.71913,-18.17377 12.64638,-7.41354 -8.02828,-23.09828 1.19669,-32.12652 9.22498,-9.02824 33.63056,8.54506 28.5514,24.04703 -5.07916,15.50196 -10.32165,21.1349 -10.32165,21.1349 l 21.78845,59.11959 c 0,0 -38.39436,5.20637 -52.1938,-6.18389 -13.79944,-11.39027 -13.77527,-20.45582 -14.38581,-27.47135 z"
       id="path3357"
       inkscape:connector-curvature="0"
       sodipodi:nodetypes="zzzzzcczz"
       inkscape:export-xdpi="90"
       inkscape:export-ydpi="90" />
    <path
       style="fill:none;fill-rule:evenodd;stroke:#000000;stroke-width:5.5;stroke-linecap:butt;stroke-linejoin:miter;stroke-miterlimit:4;stroke-dasharray:none;stroke-opacity:1"
       d="M 184.90667,573.55347 697.80433,443.57587"
       id="path4329"
       inkscape:connector-curvature="0"
       sodipodi:nodetypes="cc"
       inkscape:export-xdpi="90"
       inkscape:export-ydpi="90" />
    <path
       style="fill:#000000;fill-rule:evenodd;stroke:#ffffff;stroke-width:1.29999995;stroke-linecap:butt;stroke-linejoin:miter;stroke-miterlimit:4;stroke-dasharray:none;stroke-opacity:1"
       d="m 535.11095,493.36739 c 0,0 -4.15745,1.90291 -5.57171,5.33404 -1.41427,3.43114 -0.13676,11.74737 2.10192,14.97093 2.23868,3.22355 6.37549,3.33408 6.37549,3.33408 0,0 -2.01356,-7.60436 -2.49785,-11.5442 -0.48428,-3.93984 -0.40785,-12.09485 -0.40785,-12.09485 z"
       id="path3391"
       inkscape:connector-curvature="0"
       sodipodi:nodetypes="czzczc"
       inkscape:export-xdpi="90"
       inkscape:export-ydpi="90" />
    <path
       sodipodi:nodetypes="szzzzs"
       inkscape:connector-curvature="0"
       id="path3361"
       d="m 593.669,518.71037 c -2.64911,1.38968 -4.92514,10.61245 -0.47341,14.6066 4.45173,3.99413 27.06247,2.36306 31.31873,1.32204 4.25627,-1.04098 7.02869,-3.41473 6.76543,-10.05207 -0.26327,-6.63734 -4.90291,-7.39935 -8.15028,-8.28083 -3.24739,-0.88149 -24.18795,-0.36166 -29.46047,2.40422 z"
       style="fill:#000000;fill-rule:evenodd;stroke:#ffffff;stroke-width:1.29999995;stroke-linecap:butt;stroke-linejoin:miter;stroke-miterlimit:4;stroke-dasharray:none;stroke-opacity:1"
       inkscape:export-xdpi="90"
       inkscape:export-ydpi="90" />
    <g
       id="g3472"
       style="stroke:#ffffff;stroke-width:1.29999995;stroke-miterlimit:4;stroke-dasharray:none"
       transform="translate(135.33806,57.81647)"
       inkscape:export-xdpi="90"
       inkscape:export-ydpi="90">
      <path
         sodipodi:nodetypes="szzzzs"
         inkscape:connector-curvature="0"
         id="path3383"
         d="m 453.37287,438.41365 c -3.15082,1.95724 -5.21754,13.82581 0.58211,18.56757 5.79965,4.74175 33.50853,1.01637 38.66593,-0.61614 5.1574,-1.6325 8.38157,-4.84735 7.52804,-13.24956 -0.85352,-8.40221 -6.62673,-9.02925 -10.6953,-9.90986 -4.06856,-0.88062 -29.80971,1.3125 -36.08078,5.20799 z"
         style="fill:#000000;fill-rule:evenodd;stroke:#ffffff;stroke-width:1.29999995;stroke-linecap:butt;stroke-linejoin:miter;stroke-miterlimit:4;stroke-dasharray:none;stroke-opacity:1" />
    </g>
    <path
       style="fill:#000000;fill-rule:evenodd;stroke:#ffffff;stroke-width:1.29999995;stroke-linecap:butt;stroke-linejoin:miter;stroke-miterlimit:4;stroke-dasharray:none;stroke-opacity:1"
       d="m 582.99446,476.3234 c -2.79275,2.2404 -3.4041,13.86538 2.69864,17.74752 6.10273,3.88212 32.21783,-2.88036 36.9703,-5.04006 4.75247,-2.1597 7.47047,-5.61513 5.68397,-13.57835 -1.7865,-7.96321 -7.38945,-7.90056 -11.38861,-8.27732 -3.99917,-0.37677 -28.4059,4.68918 -33.9643,9.14821 z"
       id="path3359"
       inkscape:connector-curvature="0"
       sodipodi:nodetypes="szzzzs"
       inkscape:export-xdpi="90"
       inkscape:export-ydpi="90" />
    <path
       style="fill:none;fill-rule:evenodd;stroke:#999999;stroke-width:4.6;stroke-linecap:butt;stroke-linejoin:miter;stroke-miterlimit:4;stroke-dasharray:none;stroke-opacity:1;filter:url(#filter4637)"
       d="m 187.56348,626.38469 -4.16808,49.18332 c 0,0 -1.72033,33.74772 11.67062,38.34631 13.39095,4.59859 17.92806,-7.5533 36.67908,-25.84208 18.75102,-18.28878 45.84886,-23.34124 45.84886,-23.34124"
       id="path4535"
       inkscape:connector-curvature="0"
       sodipodi:nodetypes="cczzc"
       inkscape:export-xdpi="90"
       inkscape:export-ydpi="90" />
    <path
       style="fill:none;fill-rule:evenodd;stroke:#cccccc;stroke-width:6.8;stroke-linecap:butt;stroke-linejoin:miter;stroke-opacity:1;stroke-miterlimit:4;stroke-dasharray:none;filter:url(#filter5127)"
       d="m 332.5871,662.67431 c 0,0 38.30843,41.17442 53.09372,42.07427 14.78529,0.89985 18.03183,-11.01945 18.03183,-11.01945"
       id="path5021"
       inkscape:connector-curvature="0"
       sodipodi:nodetypes="czc"
       inkscape:export-xdpi="90"
       inkscape:export-ydpi="90" />
    <path
       style="fill:#aa0000;fill-rule:evenodd;stroke:#800000;stroke-width:1px;stroke-linecap:butt;stroke-linejoin:miter;stroke-opacity:1"
       d="M 255.44171,554.80391 231,547.3622 l -30,5 24,11 -15.67746,19.29534 30.52591,-10.58809 z"
       id="path5164"
       inkscape:connector-curvature="0"
       sodipodi:nodetypes="ccccccc"
       inkscape:export-xdpi="90"
       inkscape:export-ydpi="90" />
    <path
       style="fill:#d45500;fill-rule:evenodd;stroke:none;stroke-width:1px;stroke-linecap:butt;stroke-linejoin:miter;stroke-opacity:1"
       d="m 230.79471,547.36239 -30,5 23.75195,10.88671 30.24609,-8.58007 -23.99804,-7.30664 z"
       id="path5166"
       inkscape:connector-curvature="0"
       inkscape:export-xdpi="90"
       inkscape:export-ydpi="90" />
    <path
       style="fill:none;fill-rule:evenodd;stroke:#800000;stroke-width:1px;stroke-linecap:butt;stroke-linejoin:miter;stroke-opacity:1"
       d="m 209.87176,550.85313 22.24352,10.09198 -14.82901,18.94818"
       id="path5172"
       inkscape:connector-curvature="0"
       sodipodi:nodetypes="ccc"
       inkscape:export-xdpi="90"
       inkscape:export-ydpi="90" />
    <path
       inkscape:connector-curvature="0"
       id="path5174"
       d="m 217.90414,549.41142 21.21373,9.68006 -14.21113,17.91839"
       style="fill:none;fill-rule:evenodd;stroke:#800000;stroke-width:1px;stroke-linecap:butt;stroke-linejoin:miter;stroke-opacity:1"
       sodipodi:nodetypes="ccc"
       inkscape:export-xdpi="90"
       inkscape:export-ydpi="90" />
    <path
       style="fill:none;fill-rule:evenodd;stroke:#800000;stroke-width:1px;stroke-linecap:butt;stroke-linejoin:miter;stroke-opacity:1"
       d="m 227.17227,547.96971 20.18394,9.26814 -13.79922,16.88859"
       id="path5176"
       inkscape:connector-curvature="0"
       sodipodi:nodetypes="ccc"
       inkscape:export-xdpi="90"
       inkscape:export-ydpi="90" />
    <path
       sodipodi:nodetypes="cc"
       inkscape:connector-curvature="0"
       id="path5150"
       d="M 187.39372,572.59362 C 349.63541,531.4377 536.39926,482.48539 700.14889,443.84271"
       style="fill:none;fill-rule:evenodd;stroke:#ececec;stroke-width:1.89999998;stroke-linecap:butt;stroke-linejoin:miter;stroke-miterlimit:4;stroke-dasharray:none;stroke-opacity:1;filter:url(#filter5152)"
       inkscape:export-xdpi="90"
       inkscape:export-ydpi="90" />
    <path
       style="fill:#cccccc;fill-rule:evenodd;stroke:#000000;stroke-width:1px;stroke-linecap:butt;stroke-linejoin:miter;stroke-opacity:1;filter:url(#filter4380)"
       d="m 639.41257,442.95443 6.05608,11.49099 57.61373,-13.18877 z"
       id="path4370"
       inkscape:connector-curvature="0"
       inkscape:export-xdpi="90"
       inkscape:export-ydpi="90"
       sodipodi:nodetypes="cccc" />
    <path
       style="fill:#cccccc;fill-rule:evenodd;stroke:#ffffff;stroke-width:1px;stroke-linecap:butt;stroke-linejoin:miter;stroke-opacity:1;filter:url(#filter5272)"
       d="m 641.97798,444.5306 60.96632,-2.61658"
       id="path5254"
       inkscape:connector-curvature="0"
       sodipodi:nodetypes="cc" />
    <path
       style="fill:url(#linearGradient4388);fill-opacity:1;fill-rule:evenodd;stroke:none;stroke-width:1px;stroke-linecap:butt;stroke-linejoin:miter;stroke-opacity:1;filter:url(#filter4422)"
       d="m 249.65193,314.07531 26.03208,-1.28027 8.74848,8.32173 10.02876,15.14982 9.81538,20.69764 8.10835,24.75181 4.90769,21.55115 -18.13711,-1.49364 -11.5224,-36.48759 -15.36319,-14.93644 -11.5224,-21.1244 z"
       id="path4380"
       inkscape:connector-curvature="0"
       sodipodi:nodetypes="cccccccccccc" />
    <path
       style="fill:#cccccc;fill-rule:evenodd;stroke:#6d7280;stroke-width:3.9000001;stroke-linecap:butt;stroke-linejoin:miter;stroke-miterlimit:4;stroke-dasharray:none;stroke-opacity:1"
       d="m 185.00518,425.37464 c 0,0 -3.56416,30.11174 -6.07876,38.64416 -2.5146,8.53243 -8.92124,11.35584 -8.92124,11.35584 0,0 5.55885,10.01638 24.73699,20.47328 19.17814,10.45689 36.97327,11.90787 36.97327,11.90787 l 11.43461,-12.18424 9.85513,-54.19691 c 0,0 -21.11392,-5.03516 -30.44726,-8.3685 -9.33333,-3.33333 -10.05344,-15.71026 -10.05344,-15.71026 z"
       id="path4308"
       inkscape:connector-curvature="0"
       sodipodi:nodetypes="czczccczcc" />
    <path
       style="fill:url(#linearGradient4434);fill-opacity:1;fill-rule:evenodd;stroke:none;stroke-width:1px;stroke-linecap:butt;stroke-linejoin:miter;stroke-opacity:1;filter:url(#filter4436)"
       d="m 214.25077,427.71557 4.82819,8.14757 20.51979,5.12994 9.65638,2.11234 -6.337,35.00435 -16.29513,-22.33036 -9.05285,-14.48456 z"
       id="path4426"
       inkscape:connector-curvature="0" />
    <path
       inkscape:connector-curvature="0"
       style="fill:#cccccc;fill-rule:evenodd;stroke:#6d7280;stroke-width:3.9000001;stroke-linecap:butt;stroke-linejoin:miter;stroke-miterlimit:4;stroke-dasharray:none;stroke-opacity:1"
       d="m 267.75584,320.84772 c -21.487,-0.16638 -49.82348,10.68094 -59.93555,18.0918 -2.17628,1.59494 -4.20582,3.23801 -6.11719,4.96679 a 10.400844,10.196906 0 0 0 -4.26562,-0.90624 10.400844,10.196906 0 0 0 -10.40039,10.19531 10.400844,10.196906 0 0 0 2.36328,6.46484 c -2.89076,5.42647 -5.30911,11.84574 -7.35547,19.75391 -5.38715,20.81867 2.14453,44.77539 2.14453,44.77539 0,0 36.69987,-11.0931 62.5332,-15.75977 25.83333,-4.66667 92.4668,-12.24023 92.4668,-12.24023 0,0 -8.66982,-30.03468 -20.5918,-46.06445 -2.22684,-2.99413 -4.19622,-5.55952 -6.0625,-7.80274 a 5.9142056,6.3220816 0 0 0 1.34961,-4.01367 5.9142056,6.3220816 0 0 0 -5.91406,-6.32227 5.9142056,6.3220816 0 0 0 -4.0918,1.75977 c -5.35509,-4.1163 -11.78952,-6.99822 -22.65039,-10.8457 -3.921,-1.38903 -8.51412,-2.01434 -13.47265,-2.05274 z"
       id="path3472" />
    <path
       style="fill:#cccccc;fill-opacity:1;fill-rule:evenodd;stroke:#6d7280;stroke-width:2.70000005;stroke-linecap:butt;stroke-linejoin:miter;stroke-miterlimit:4;stroke-dasharray:none;stroke-opacity:1"
       d="m 229.7492,320.86971 c 0,0 22.47151,31.97475 29.44023,49.32068 11.91335,29.65369 14,62 14,62 l 31,16 19,-20 c 0,0 -8.48873,-40.5799 -20,-70 -11.51127,-29.4201 -27,-42 -27,-42 0,0 -6.96906,-1.5218 -22.11955,-0.5218 -15.15049,1 -24.32068,5.20112 -24.32068,5.20112 z"
       id="path4302"
       inkscape:connector-curvature="0"
       sodipodi:nodetypes="csccczczc" />
    <path
       style="fill:none;fill-rule:evenodd;stroke:#6d7280;stroke-width:2;stroke-linecap:butt;stroke-linejoin:miter;stroke-miterlimit:4;stroke-dasharray:none;stroke-opacity:1"
       d="m 262.76468,383.6461 c 0,0 -18.34271,2.64134 -40.2806,6.60337 -21.93789,3.96203 -42.48171,9.68495 -42.48171,9.68495"
       id="path4304"
       inkscape:connector-curvature="0"
       sodipodi:nodetypes="czc" />
    <path
       style="fill:#e6e6e6;fill-rule:evenodd;stroke:#999999;stroke-width:1.89999998;stroke-linecap:butt;stroke-linejoin:miter;stroke-miterlimit:4;stroke-dasharray:none;stroke-opacity:1"
       d="M 413.27448,235.48466 187.31368,549.71851"
       id="path5017"
       inkscape:connector-curvature="0"
       sodipodi:nodetypes="cc"
       inkscape:export-xdpi="90"
       inkscape:export-ydpi="90" />
    <path
       sodipodi:nodetypes="cc"
       inkscape:connector-curvature="0"
       id="path4306"
       d="m 334.53818,380.24487 c -12.45117,-0.73056 -23.23658,0.44022 -23.23658,0.44022"
       style="fill:none;fill-rule:evenodd;stroke:#6d7280;stroke-width:1.89999998;stroke-linecap:butt;stroke-linejoin:miter;stroke-miterlimit:4;stroke-dasharray:none;stroke-opacity:1" />
    <ellipse
       ry="5.4400134"
       rx="5.6014152"
       cy="406.50784"
       cx="197.64258"
       id="ellipse4324"
       style="opacity:1;fill:url(#radialGradient4364);fill-opacity:1;fill-rule:evenodd;stroke:#6d7280;stroke-width:1.20200002;stroke-miterlimit:4;stroke-dasharray:none;stroke-opacity:1" />
    <ellipse
       style="opacity:1;fill:url(#radialGradient4370);fill-opacity:1;fill-rule:evenodd;stroke:#6d7280;stroke-width:1.20200002;stroke-miterlimit:4;stroke-dasharray:none;stroke-opacity:1"
       id="ellipse4368"
       cx="222.82115"
       cy="400.53326"
       rx="5.6014152"
       ry="5.4400134" />
    <ellipse
       ry="5.4400134"
       rx="5.6014152"
       cy="396.05234"
       cx="249.27998"
       id="ellipse4372"
       style="opacity:1;fill:url(#radialGradient4374);fill-opacity:1;fill-rule:evenodd;stroke:#6d7280;stroke-width:1.20200002;stroke-miterlimit:4;stroke-dasharray:none;stroke-opacity:1" />
    <ellipse
       style="opacity:1;fill:url(#radialGradient4378);fill-opacity:1;fill-rule:evenodd;stroke:#6d7280;stroke-width:1.20200002;stroke-miterlimit:4;stroke-dasharray:none;stroke-opacity:1"
       id="ellipse4376"
       cx="325.88257"
       cy="387.94397"
       rx="5.6014152"
       ry="5.4400134" />
    <path
       style="fill:url(#linearGradient4448);fill-opacity:1;fill-rule:evenodd;stroke:none;stroke-width:1px;stroke-linecap:butt;stroke-linejoin:miter;stroke-opacity:1;filter:url(#filter4583)"
       d="m 231.45119,323.60781 12.07046,19.6145 11.76871,19.91627 7.54404,19.31275 5.12995,20.82156"
       id="path4440"
       inkscape:connector-curvature="0"
       sodipodi:nodetypes="ccccc" />
    <path
       sodipodi:nodetypes="cc"
       inkscape:connector-curvature="0"
       id="path4658"
       d="m 327.4114,400.55702 c 9.63729,-3.50783 2.70217,0.10972 9.95814,-1.81057"
       style="fill:none;fill-rule:evenodd;stroke:#999999;stroke-width:2.5999999;stroke-linecap:butt;stroke-linejoin:miter;stroke-miterlimit:4;stroke-dasharray:none;stroke-opacity:1;filter:url(#filter4646)" />
    <path
       style="fill:none;fill-rule:evenodd;stroke:#999999;stroke-width:2.5999999;stroke-linecap:butt;stroke-linejoin:miter;stroke-miterlimit:4;stroke-dasharray:none;stroke-opacity:1;filter:url(#filter4646)"
       d="m 186.18694,428.01733 c 9.63729,-3.50783 17.18673,-5.62375 24.4427,-7.54404"
       id="path4587"
       inkscape:connector-curvature="0"
       sodipodi:nodetypes="cc" />
  </g>
</svg>
